<svg xmlns="http://www.w3.org/2000/svg" viewBox="0 0 24 24"><path d="M7 0H21.5A2.5 2.5 0 0 1 24 2.5V17A7 7 0 0 1 17 24H2.5A2.5 2.5 0 0 1 0 21.5V7A7 7 0 0 1 7 0Z" fill="#475569"/><path d="M6.5 4.5h11a1.75 1.75 0 0 1 1.75 1.75v2.75a1.75 1.75 0 0 1-1.75 1.75h-11A1.75 1.75 0 0 1 4.75 9V6.25A1.75 1.75 0 0 1 6.5 4.5Z" fill="#ffffff"/><path d="M6.5 13.25h11a1.75 1.75 0 0 1 1.75 1.75v2.75a1.75 1.75 0 0 1-1.75 1.75h-11a1.75 1.75 0 0 1-1.75-1.75V15a1.75 1.75 0 0 1 1.75-1.75Z" fill="#ffffff" opacity="0.72"/><circle cx="8.75" cy="7.625" r="1.5" fill="#475569"/><circle cx="8.75" cy="16.375" r="1.5" fill="#475569"/></svg>
